<mxfile host="www.draw.io" modified="2019-10-16T02:53:20.739Z" agent="Mozilla/5.0 (Macintosh; Intel Mac OS X 10_14_5) AppleWebKit/537.36 (KHTML, like Gecko) Chrome/77.0.3865.90 Safari/537.36" etag="Jz9I4cLq_-YW_mqH1BjF" version="12.1.1" type="github" pages="1">
  <diagram id="1UHuFFZr_RtYywYtBmKa" name="第 1 页">
    <mxGraphModel dx="1426" dy="891" grid="1" gridSize="10" guides="1" tooltips="1" connect="1" arrows="1" fold="1" page="1" pageScale="1" pageWidth="827" pageHeight="1169" math="0" shadow="0">
      <root>
        <mxCell id="0"/>
        <mxCell id="1" parent="0"/>
        <mxCell id="UG_6P7aP13FA3qGlfI1L-2" value="" style="shape=mxgraph.bpmn.user_task;html=1;outlineConnect=0;" vertex="1" parent="1">
          <mxGeometry x="280" y="220" width="14" height="14" as="geometry"/>
        </mxCell>
      </root>
    </mxGraphModel>
  </diagram>
</mxfile>
